<svg width="23" height="15" viewBox="0 0 23 15" fill="none" xmlns="http://www.w3.org/2000/svg">
<path d="M22.5099 9.11906L21.7087 9.11872C21.3008 9.11855 20.9096 8.95634 20.6213 8.66778C20.333 8.37921 20.1711 7.98793 20.1713 7.58001C20.1714 7.17209 20.3336 6.78095 20.6222 6.49263C20.9108 6.2043 21.302 6.04242 21.71 6.04259L22.5112 6.04293L22.5134 0.936549L16.0681 0.933857L15.4788 1.22987L14.8897 0.933364L0.649389 0.927414L0.647254 6.03672L1.44851 6.03706C1.85643 6.03723 2.24758 6.19943 2.5359 6.488C2.82422 6.77656 2.98611 7.16784 2.98593 7.57576C2.98576 7.98368 2.82356 8.37483 2.53499 8.66315C2.24643 8.95147 1.85515 9.11336 1.44723 9.11319L0.645968 9.11285L0.643835 14.2192L14.8819 14.2252L15.4713 13.9292L16.0604 14.2257L22.5056 14.2284L22.5099 9.11906ZM14.6766 1.67704L16.2784 1.67771L16.2774 4.09467L14.6752 4.09363L14.6766 1.67704ZM14.6753 4.82641L16.2778 4.82708L16.2768 7.20888L14.6743 7.20822L14.6753 4.82641ZM14.674 7.94356L16.2765 7.94423L16.2755 10.326L14.6726 10.3287L14.674 7.94356ZM14.672 13.478L14.673 11.0611L16.2752 11.0614L16.2742 13.4783L14.672 13.478Z" fill="white"/>
</svg>
