<svg width="740" height="174" viewBox="0 0 740 174" fill="none" xmlns="http://www.w3.org/2000/svg">
<path d="M740.001 21.8735C740.001 23.1195 739.713 24.0779 739.138 24.7488C738.563 25.3238 737.605 25.6113 736.263 25.6113H713.548C712.782 25.6113 712.207 25.803 711.823 26.1864C711.536 26.4739 711.392 27.001 711.392 27.7678V99.5052C711.392 100.751 711.104 101.71 710.529 102.38C709.954 102.955 708.996 103.243 707.654 103.243H690.115C688.869 103.243 687.911 102.955 687.24 102.38C686.665 101.71 686.377 100.751 686.377 99.5052V27.7678C686.377 27.001 686.186 26.4739 685.802 26.1864C685.515 25.803 684.988 25.6113 684.221 25.6113H661.506C660.26 25.6113 659.302 25.3238 658.631 24.7488C658.056 24.0779 657.769 23.1195 657.769 21.8735V6.3472C657.769 5.00542 658.056 4.047 658.631 3.47195C659.302 2.8969 660.26 2.60938 661.506 2.60938H736.263C737.605 2.60938 738.563 2.8969 739.138 3.47195C739.713 4.047 740.001 5.00542 740.001 6.3472V21.8735Z" fill="white"/>
<path d="M554.033 98.6483C553.17 100.469 552.26 101.715 551.302 102.386C550.343 102.961 548.953 103.249 547.132 103.249H529.593C527.485 103.249 526.431 102.578 526.431 101.236C526.431 100.373 526.67 99.5108 527.149 98.6483L573.01 7.35922C574.351 4.57982 575.501 2.66299 576.46 1.60873C577.418 0.554475 578.473 0.0273438 579.623 0.0273438C580.773 0.0273438 581.779 0.554475 582.642 1.60873C583.6 2.66299 584.798 4.57982 586.236 7.35922L632.383 98.6483C632.863 99.5108 633.102 100.325 633.102 101.092C633.102 102.53 632 103.249 629.796 103.249H611.394C609.573 103.249 608.183 102.961 607.225 102.386C606.362 101.715 605.5 100.469 604.637 98.6483L579.191 46.3188L554.033 98.6483Z" fill="white"/>
<path d="M444.923 76.2157C444.06 76.2157 443.485 76.4073 443.198 76.7907C442.91 77.0782 442.767 77.6054 442.767 78.3721V99.5052C442.767 100.847 442.431 101.805 441.76 102.38C441.185 102.955 440.227 103.243 438.885 103.243H421.49C420.244 103.243 419.285 102.955 418.615 102.38C418.039 101.71 417.752 100.751 417.752 99.5052V6.3472C417.752 5.00542 418.039 4.047 418.615 3.47195C419.285 2.8969 420.244 2.60938 421.49 2.60938H455.274C484.889 2.60938 499.696 14.7333 499.696 38.9812C499.696 51.2489 495.815 60.5456 488.052 66.8711C480.289 73.1008 469.027 76.2157 454.268 76.2157H444.923ZM444.923 25.6113C444.06 25.6113 443.485 25.803 443.198 26.1864C442.91 26.4739 442.767 27.001 442.767 27.7678V51.0573C442.767 51.824 442.91 52.3991 443.198 52.7824C443.485 53.0699 444.06 53.2137 444.923 53.2137H454.268C460.689 53.2137 465.529 52.0636 468.788 49.7634C472.142 47.3674 473.819 43.8212 473.819 39.125C473.819 34.4288 472.19 31.0264 468.931 28.9179C465.769 26.7135 460.881 25.6113 454.268 25.6113H444.923Z" fill="white"/>
<path d="M289.041 99.5131C289.041 100.855 288.706 101.813 288.035 102.388C287.46 102.963 286.501 103.251 285.159 103.251H267.764C266.518 103.251 265.56 102.963 264.889 102.388C264.314 101.717 264.026 100.759 264.026 99.5131V6.64266C264.026 4.91751 264.314 3.57572 264.889 2.61731C265.464 1.6589 266.327 1.17969 267.477 1.17969C268.339 1.17969 269.25 1.51513 270.208 2.18603C271.167 2.85692 272.317 3.95909 273.658 5.49256L315.062 50.3464L356.322 5.49256C357.855 3.86325 359.053 2.76107 359.916 2.18603C360.778 1.51513 361.641 1.17969 362.504 1.17969C364.804 1.17969 365.954 3.00068 365.954 6.64266V99.5131C365.954 100.759 365.666 101.717 365.091 102.388C364.516 102.963 363.558 103.251 362.216 103.251H344.821C342.233 103.251 340.939 102.005 340.939 99.5131V56.0969L320.381 79.5301C319.039 80.9678 317.985 81.9741 317.218 82.5491C316.452 83.1242 315.685 83.4117 314.918 83.4117C314.151 83.4117 313.385 83.1242 312.618 82.5491C311.851 81.9741 310.845 80.9678 309.599 79.5301L289.041 56.0969V99.5131Z" fill="white"/>
<path d="M144.509 98.6483C143.646 100.469 142.736 101.715 141.777 102.386C140.819 102.961 139.429 103.249 137.608 103.249H120.069C117.961 103.249 116.906 102.578 116.906 101.236C116.906 100.373 117.146 99.5108 117.625 98.6483L163.485 7.35922C164.827 4.57982 165.977 2.66299 166.936 1.60873C167.894 0.554475 168.948 0.0273438 170.098 0.0273438C171.248 0.0273438 172.255 0.554475 173.117 1.60873C174.076 2.66299 175.274 4.57982 176.711 7.35922L222.859 98.6483C223.338 99.5108 223.578 100.325 223.578 101.092C223.578 102.53 222.476 103.249 220.271 103.249H201.87C200.049 103.249 198.659 102.961 197.701 102.386C196.838 101.715 195.976 100.469 195.113 98.6483L169.667 46.3188L144.509 98.6483Z" fill="white"/>
<path d="M42.2614 0.757812C55.4875 0.757812 67.2281 4.879 77.4831 13.1214C78.6332 13.9839 79.2083 14.9424 79.2083 15.9966C79.2083 16.955 78.8728 17.9135 78.202 18.8719L70.4388 31.2354C69.5762 32.5772 68.6657 33.2481 67.7073 33.2481C66.9406 33.2481 66.0301 32.8647 64.9758 32.098C61.238 29.3186 57.5002 27.2101 53.7624 25.7725C50.0245 24.239 46.143 23.4723 42.1176 23.4723C38.284 23.4723 35.2649 24.239 33.0606 25.7725C30.8562 27.2101 29.7541 29.1269 29.7541 31.5229C29.7541 33.3439 30.3291 34.8295 31.4792 35.9796C32.6293 37.0338 34.3545 37.9922 36.6546 38.8548C38.9548 39.7174 42.3093 40.6758 46.718 41.7301C54.1936 43.5511 60.3275 45.8033 65.1196 48.4869C69.9117 51.0746 73.5057 54.3332 75.9017 58.2627C78.2978 62.1922 79.4958 66.9843 79.4958 72.639C79.4958 79.3479 77.8186 85.1463 74.4641 90.0342C71.2055 94.9221 66.5093 98.6599 60.3754 101.248C54.3374 103.835 47.341 105.129 39.3861 105.129C32.1022 105.129 25.3933 104.075 19.2594 101.966C13.1256 99.7621 7.61466 96.7431 2.72675 92.9094C1.28912 91.7593 0.570312 90.6572 0.570312 89.6029C0.570312 88.6445 0.953678 87.5902 1.72041 86.4401L9.19605 74.5079C10.0586 73.0702 11.017 72.3514 12.0713 72.3514C12.7422 72.3514 13.6527 72.7827 14.8028 73.6453C18.2531 76.3289 22.1347 78.4853 26.4475 80.1146C30.7604 81.6481 35.0733 82.4148 39.3861 82.4148C43.9865 82.4148 47.4847 81.696 49.8808 80.2584C52.3727 78.7249 53.6186 76.7122 53.6186 74.2203C53.6186 72.4952 53.0435 71.0576 51.8934 69.9075C50.7434 68.7574 48.9224 67.751 46.4305 66.8885C43.9386 65.9301 40.2966 64.8758 35.5045 63.7257C28.4123 62.0005 22.5659 59.892 17.9656 57.4002C13.3652 54.9083 9.86694 51.6976 7.4709 47.7681C5.07486 43.7427 3.87684 38.8069 3.87684 32.9606C3.87684 26.2517 5.50615 20.5012 8.76476 15.7091C12.0234 10.8212 16.5279 7.13128 22.2784 4.6394C28.1248 2.05167 34.7857 0.757812 42.2614 0.757812Z" fill="white"/>
<path d="M728.197 139.729V144.785H723.864V154.444C723.864 156.31 723.856 157.055 723.841 156.678C723.886 157.702 724.127 158.364 724.563 158.665C724.849 158.875 725.203 158.98 725.624 158.98C726.211 158.98 727.061 158.777 728.174 158.371L728.716 163.291C727.242 163.923 725.572 164.239 723.706 164.239C721.268 164.239 719.568 163.547 718.605 162.163C718.184 161.576 717.883 160.756 717.702 159.703C717.567 158.905 717.499 157.416 717.499 155.234V144.785H714.588V139.729H717.499V134.967L723.864 131.266V139.729H728.197Z" fill="white"/>
<path d="M710.303 163.713H703.961V151.481C703.961 149.555 703.923 148.329 703.848 147.802C703.638 146.327 703.103 145.289 702.246 144.687C701.629 144.266 700.892 144.055 700.034 144.055C698.951 144.055 697.98 144.349 697.123 144.936C696.22 145.538 695.603 146.342 695.272 147.351C694.956 148.344 694.798 150.179 694.798 152.857V163.713H688.456V139.745H694.347V143.266C696.438 140.557 699.071 139.203 702.246 139.203C705.195 139.203 707.354 140.098 708.723 141.889C709.776 143.288 710.303 145.598 710.303 148.818V163.713Z" fill="white"/>
<path d="M676.184 156.085L682.503 157.146C680.848 161.885 677.372 164.255 672.076 164.255C667.893 164.255 664.809 162.893 662.823 160.17C661.243 158.003 660.453 155.25 660.453 151.91C660.453 148.298 661.363 145.334 663.184 143.017C665.185 140.475 667.939 139.203 671.444 139.203C675.507 139.203 678.508 140.633 680.449 143.491C682.119 145.944 682.917 149.299 682.842 153.557H666.953C666.998 155.242 667.442 156.626 668.285 157.71C669.232 158.913 670.519 159.515 672.144 159.515C674.175 159.515 675.522 158.372 676.184 156.085ZM676.545 149.675C676.5 148.095 676.109 146.801 675.371 145.793C674.529 144.635 673.348 144.055 671.828 144.055C670.293 144.055 669.097 144.627 668.239 145.771C667.442 146.794 667.051 148.095 667.066 149.675H676.545Z" fill="white"/>
<path d="M620.253 139.745H626.098V143.017C628.19 140.475 630.68 139.203 633.569 139.203C636.653 139.203 638.91 140.475 640.339 143.017C642.431 140.475 644.868 139.203 647.652 139.203C651.233 139.203 653.633 140.61 654.851 143.424C655.288 144.432 655.506 146.087 655.506 148.389V163.713H649.164V150.014C649.164 147.621 648.946 146.087 648.509 145.41C647.938 144.507 647.035 144.055 645.801 144.055C643.71 144.055 642.31 145.116 641.603 147.238C641.257 148.291 641.084 149.946 641.084 152.203V163.713H634.742V150.578C634.742 148.893 634.712 147.817 634.652 147.351C634.487 145.966 634.058 145.033 633.366 144.552C632.884 144.221 632.237 144.055 631.425 144.055C629.243 144.055 627.806 145.079 627.114 147.125C626.768 148.118 626.595 149.765 626.595 152.068V163.713H620.253V139.745Z" fill="white"/>
<path d="M608.418 156.085L614.737 157.146C613.082 161.885 609.607 164.255 604.311 164.255C600.128 164.255 597.043 162.893 595.057 160.17C593.477 158.003 592.688 155.25 592.688 151.91C592.688 148.298 593.598 145.334 595.418 143.017C597.419 140.475 600.173 139.203 603.679 139.203C607.741 139.203 610.743 140.633 612.684 143.491C614.354 145.944 615.151 149.299 615.076 153.557H599.187C599.233 155.242 599.676 156.626 600.519 157.71C601.467 158.913 602.753 159.515 604.378 159.515C606.41 159.515 607.756 158.372 608.418 156.085ZM608.779 149.675C608.734 148.095 608.343 146.801 607.606 145.793C606.763 144.635 605.582 144.055 604.062 144.055C602.528 144.055 601.331 144.627 600.474 145.771C599.676 146.794 599.285 148.095 599.3 149.675H608.779Z" fill="white"/>
<path d="M565.197 165.293L572.442 166.173C572.562 167.016 572.841 167.595 573.277 167.911C573.894 168.362 574.842 168.588 576.121 168.588C577.776 168.588 579.017 168.34 579.845 167.843C580.401 167.512 580.823 166.978 581.109 166.241C581.304 165.729 581.402 164.759 581.402 163.329V159.831C579.506 162.419 577.114 163.713 574.225 163.713C571.005 163.713 568.455 162.351 566.574 159.628C565.1 157.492 564.362 154.813 564.362 151.594C564.362 148.118 565.16 145.259 566.755 143.017C568.56 140.475 571.133 139.203 574.473 139.203C577.437 139.203 579.882 140.505 581.808 143.108V139.745H587.744V161.253C587.744 165.993 586.849 169.205 585.058 170.89C583.283 172.59 580.386 173.44 576.369 173.44C568.906 173.44 565.175 170.98 565.175 166.06C565.175 165.85 565.182 165.594 565.197 165.293ZM570.862 151.232C570.862 153.234 571.208 154.874 571.9 156.153C572.788 157.777 574.15 158.59 575.985 158.59C577.851 158.59 579.28 157.823 580.273 156.288C581.101 154.994 581.515 153.361 581.515 151.39C581.515 149.359 581.131 147.697 580.364 146.403C579.416 144.838 577.994 144.055 576.098 144.055C574.248 144.055 572.871 144.83 571.968 146.38C571.231 147.629 570.862 149.246 570.862 151.232Z" fill="white"/>
<path d="M544.351 147.057L538.596 146.019C539.303 143.476 540.567 141.671 542.388 140.602C543.967 139.67 546.164 139.203 548.978 139.203C553.838 139.203 556.922 140.384 558.231 142.746C558.818 143.83 559.096 145.726 559.066 148.434L558.998 155.837C558.968 159.056 559.45 161.682 560.443 163.713H554.169C553.988 163.262 553.785 162.637 553.559 161.84C553.439 161.434 553.364 161.185 553.334 161.095C551.167 163.202 548.692 164.255 545.908 164.255C543.636 164.255 541.763 163.653 540.289 162.449C538.724 161.155 537.941 159.395 537.941 157.168C537.941 154.324 539.175 152.301 541.643 151.097C542.816 150.525 544.494 150.036 546.676 149.63C549.655 149.058 551.709 148.539 552.837 148.073V147.441C552.837 146.072 552.446 145.139 551.663 144.642C551.047 144.251 550.001 144.055 548.526 144.055C546.45 144.055 545.058 145.056 544.351 147.057ZM552.837 152.203C552.551 152.293 551.265 152.602 548.978 153.128C547.172 153.55 546.021 153.933 545.525 154.279C544.697 154.851 544.283 155.596 544.283 156.514C544.283 157.462 544.629 158.244 545.321 158.861C546.014 159.478 546.841 159.786 547.804 159.786C548.963 159.786 550.053 159.41 551.077 158.658C551.829 158.101 552.333 157.401 552.589 156.559C552.754 156.002 552.837 154.971 552.837 153.467V152.203Z" fill="white"/>
<path d="M532.671 163.713H526.329V151.481C526.329 149.555 526.292 148.329 526.216 147.802C526.006 146.327 525.472 145.289 524.614 144.687C523.997 144.266 523.26 144.055 522.402 144.055C521.319 144.055 520.348 144.349 519.491 144.936C518.588 145.538 517.971 146.342 517.64 147.351C517.324 148.344 517.166 150.179 517.166 152.857V163.713H510.824V139.745H516.715V143.266C518.806 140.557 521.439 139.203 524.614 139.203C527.563 139.203 529.722 140.098 531.091 141.889C532.145 143.288 532.671 145.598 532.671 148.818V163.713Z" fill="white"/>
<path d="M489.437 147.057L483.682 146.019C484.389 143.476 485.653 141.671 487.473 140.602C489.053 139.67 491.25 139.203 494.064 139.203C498.924 139.203 502.008 140.384 503.317 142.746C503.904 143.83 504.182 145.726 504.152 148.434L504.084 155.837C504.054 159.056 504.536 161.682 505.529 163.713H499.255C499.074 163.262 498.871 162.637 498.645 161.84C498.525 161.434 498.45 161.185 498.419 161.095C496.253 163.202 493.778 164.255 490.994 164.255C488.722 164.255 486.849 163.653 485.375 162.449C483.81 161.155 483.027 159.395 483.027 157.168C483.027 154.324 484.261 152.301 486.729 151.097C487.902 150.525 489.58 150.036 491.762 149.63C494.741 149.058 496.794 148.539 497.923 148.073V147.441C497.923 146.072 497.532 145.139 496.749 144.642C496.132 144.251 495.087 144.055 493.612 144.055C491.536 144.055 490.144 145.056 489.437 147.057ZM497.923 152.203C497.637 152.293 496.351 152.602 494.064 153.128C492.258 153.55 491.107 153.933 490.611 154.279C489.783 154.851 489.369 155.596 489.369 156.514C489.369 157.462 489.715 158.244 490.407 158.861C491.1 159.478 491.927 159.786 492.89 159.786C494.049 159.786 495.139 159.41 496.163 158.658C496.915 158.101 497.419 157.401 497.675 156.559C497.84 156.002 497.923 154.971 497.923 153.467V152.203Z" fill="white"/>
<path d="M445.681 163.7V130.613H455.679L461.682 153.182L467.618 130.613H477.639V163.7H471.432V137.655L464.864 163.7H458.432L451.887 137.655V163.7H445.681Z" fill="white"/>
<path d="M403.973 156.875L410.337 155.904C410.894 158.417 412.602 159.673 415.46 159.673C418.485 159.673 419.997 158.808 419.997 157.078C419.997 156.1 419.139 155.423 417.424 155.047C412.278 153.903 409.036 152.872 407.697 151.955C405.801 150.661 404.853 148.863 404.853 146.561C404.853 143.973 405.944 142.039 408.125 140.76C409.901 139.722 412.173 139.203 414.941 139.203C417.755 139.203 419.959 139.602 421.554 140.399C423.525 141.407 424.857 143.123 425.549 145.545L419.568 146.651C419.041 144.725 417.537 143.762 415.054 143.762C412.18 143.762 410.743 144.424 410.743 145.748C410.743 146.2 410.954 146.583 411.375 146.899C412.022 147.381 414.054 148.005 417.469 148.772C420.779 149.51 423.089 150.427 424.398 151.526C425.707 152.624 426.361 154.189 426.361 156.22C426.361 158.944 425.173 161.027 422.795 162.472C420.809 163.661 418.364 164.255 415.46 164.255C409.066 164.255 405.237 161.795 403.973 156.875Z" fill="white"/>
<path d="M401.35 139.729V144.785H397.017V154.444C397.017 156.31 397.01 157.055 396.995 156.678C397.04 157.702 397.28 158.364 397.717 158.665C398.003 158.875 398.356 158.98 398.777 158.98C399.364 158.98 400.214 158.777 401.328 158.371L401.869 163.291C400.395 163.923 398.725 164.239 396.859 164.239C394.422 164.239 392.721 163.547 391.758 162.163C391.337 161.576 391.036 160.756 390.856 159.703C390.72 158.905 390.653 157.416 390.653 155.234V144.785H387.741V139.729H390.653V134.967L397.017 131.266V139.729H401.35Z" fill="white"/>
<path d="M378.072 156.085L384.392 157.146C382.737 161.885 379.261 164.255 373.965 164.255C369.782 164.255 366.698 162.893 364.712 160.17C363.132 158.003 362.342 155.25 362.342 151.91C362.342 148.298 363.252 145.334 365.073 143.017C367.074 140.475 369.827 139.203 373.333 139.203C377.395 139.203 380.397 140.633 382.338 143.491C384.008 145.944 384.806 149.299 384.73 153.557H368.842C368.887 155.242 369.331 156.626 370.173 157.71C371.121 158.913 372.408 159.515 374.033 159.515C376.064 159.515 377.41 158.372 378.072 156.085ZM378.434 149.675C378.388 148.095 377.997 146.801 377.26 145.793C376.417 144.635 375.236 144.055 373.717 144.055C372.182 144.055 370.986 144.627 370.128 145.771C369.331 146.794 368.939 148.095 368.955 149.675H378.434Z" fill="white"/>
<path d="M335.729 156.875L342.093 155.904C342.65 158.417 344.357 159.673 347.216 159.673C350.24 159.673 351.753 158.808 351.753 157.078C351.753 156.1 350.895 155.423 349.18 155.047C344.034 153.903 340.792 152.872 339.452 151.955C337.557 150.661 336.609 148.863 336.609 146.561C336.609 143.973 337.7 142.039 339.881 140.76C341.657 139.722 343.929 139.203 346.697 139.203C349.511 139.203 351.715 139.602 353.31 140.399C355.281 141.407 356.612 143.123 357.305 145.545L351.324 146.651C350.797 144.725 349.293 143.762 346.81 143.762C343.936 143.762 342.499 144.424 342.499 145.748C342.499 146.2 342.71 146.583 343.131 146.899C343.778 147.381 345.809 148.005 349.225 148.772C352.535 149.51 354.845 150.427 356.154 151.526C357.463 152.624 358.117 154.189 358.117 156.22C358.117 158.944 356.928 161.027 354.551 162.472C352.565 163.661 350.12 164.255 347.216 164.255C340.822 164.255 336.992 161.795 335.729 156.875Z" fill="white"/>
<path d="M309.552 156.875L315.916 155.904C316.473 158.417 318.181 159.673 321.039 159.673C324.064 159.673 325.576 158.808 325.576 157.078C325.576 156.1 324.718 155.423 323.003 155.047C317.857 153.903 314.615 152.872 313.276 151.955C311.38 150.661 310.432 148.863 310.432 146.561C310.432 143.973 311.523 142.039 313.704 140.76C315.48 139.722 317.752 139.203 320.52 139.203C323.334 139.203 325.538 139.602 327.133 140.399C329.104 141.407 330.436 143.123 331.128 145.545L325.147 146.651C324.62 144.725 323.116 143.762 320.633 143.762C317.759 143.762 316.322 144.424 316.322 145.748C316.322 146.2 316.533 146.583 316.954 146.899C317.601 147.381 319.633 148.005 323.048 148.772C326.358 149.51 328.668 150.427 329.977 151.526C331.286 152.624 331.94 154.189 331.94 156.22C331.94 158.944 330.752 161.027 328.374 162.472C326.388 163.661 323.943 164.255 321.039 164.255C314.645 164.255 310.816 161.795 309.552 156.875Z" fill="white"/>
<path d="M307.819 163.7H300.552L297.663 156.184H284.438L281.707 163.7H274.62L287.507 130.613H294.571L307.819 163.7ZM295.519 150.61L290.96 138.332L286.491 150.61H295.519Z" fill="white"/>
<path d="M257.874 163.7H251.983V160.179C250.042 162.887 247.545 164.241 244.49 164.241C241.256 164.241 238.72 162.902 236.885 160.224C235.275 157.877 234.47 155.01 234.47 151.625C234.47 148.104 235.252 145.231 236.817 143.004C238.622 140.461 241.21 139.19 244.581 139.19C247.259 139.19 249.576 140.303 251.532 142.53V130.613H257.874V163.7ZM240.947 151.196C240.947 153.754 241.301 155.605 242.008 156.748C243.031 158.403 244.46 159.231 246.296 159.231C248.117 159.231 249.493 158.403 250.426 156.748C251.178 155.424 251.555 153.777 251.555 151.806C251.555 146.63 249.787 144.042 246.251 144.042C244.43 144.042 243.046 144.817 242.098 146.367C241.331 147.63 240.947 149.24 240.947 151.196Z" fill="white"/>
<path d="M228.972 163.713H222.63V151.481C222.63 149.555 222.592 148.329 222.517 147.802C222.306 146.327 221.772 145.289 220.915 144.687C220.298 144.266 219.561 144.055 218.703 144.055C217.62 144.055 216.649 144.349 215.792 144.936C214.889 145.538 214.272 146.342 213.941 147.351C213.625 148.344 213.467 150.179 213.467 152.857V163.713H207.125V139.745H213.016V143.266C215.107 140.557 217.74 139.203 220.915 139.203C223.864 139.203 226.023 140.098 227.392 141.889C228.445 143.288 228.972 145.598 228.972 148.818V163.713Z" fill="white"/>
<path d="M185.718 147.057L179.963 146.019C180.67 143.476 181.934 141.671 183.755 140.602C185.335 139.67 187.531 139.203 190.345 139.203C195.205 139.203 198.289 140.384 199.598 142.746C200.185 143.83 200.463 145.726 200.433 148.434L200.366 155.837C200.335 159.056 200.817 161.682 201.81 163.713H195.536C195.355 163.262 195.152 162.637 194.926 161.84C194.806 161.434 194.731 161.185 194.701 161.095C192.534 163.202 190.059 164.255 187.275 164.255C185.004 164.255 183.13 163.653 181.656 162.449C180.091 161.155 179.309 159.395 179.309 157.168C179.309 154.324 180.542 152.301 183.01 151.097C184.184 150.525 185.861 150.036 188.043 149.63C191.022 149.058 193.076 148.539 194.204 148.073V147.441C194.204 146.072 193.813 145.139 193.031 144.642C192.414 144.251 191.368 144.055 189.894 144.055C187.817 144.055 186.425 145.056 185.718 147.057ZM194.204 152.203C193.918 152.293 192.632 152.602 190.345 153.128C188.539 153.55 187.388 153.933 186.892 154.279C186.064 154.851 185.651 155.596 185.651 156.514C185.651 157.462 185.997 158.244 186.689 158.861C187.381 159.478 188.208 159.786 189.171 159.786C190.33 159.786 191.421 159.41 192.444 158.658C193.196 158.101 193.7 157.401 193.956 156.559C194.121 156.002 194.204 154.971 194.204 153.467V152.203Z" fill="white"/>
<path d="M139.221 156.875L145.585 155.904C146.142 158.417 147.85 159.673 150.708 159.673C153.733 159.673 155.245 158.808 155.245 157.078C155.245 156.1 154.387 155.423 152.672 155.047C147.526 153.903 144.284 152.872 142.945 151.955C141.049 150.661 140.101 148.863 140.101 146.561C140.101 143.973 141.192 142.039 143.373 140.76C145.149 139.722 147.421 139.203 150.189 139.203C153.003 139.203 155.207 139.602 156.802 140.399C158.773 141.407 160.105 143.123 160.797 145.545L154.816 146.651C154.289 144.725 152.785 143.762 150.302 143.762C147.428 143.762 145.991 144.424 145.991 145.748C145.991 146.2 146.202 146.583 146.623 146.899C147.27 147.381 149.302 148.005 152.717 148.772C156.027 149.51 158.337 150.427 159.646 151.526C160.955 152.624 161.609 154.189 161.609 156.22C161.609 158.944 160.421 161.027 158.043 162.472C156.057 163.661 153.612 164.255 150.708 164.255C144.314 164.255 140.485 161.795 139.221 156.875Z" fill="white"/>
<path d="M136.572 139.729V144.785H132.239V154.444C132.239 156.31 132.231 157.055 132.216 156.678C132.261 157.702 132.502 158.364 132.938 158.665C133.224 158.875 133.578 158.98 133.999 158.98C134.586 158.98 135.436 158.777 136.549 158.371L137.091 163.291C135.617 163.923 133.947 164.239 132.081 164.239C129.643 164.239 127.943 163.547 126.98 162.163C126.559 161.576 126.258 160.756 126.077 159.703C125.942 158.905 125.874 157.416 125.874 155.234V144.785H122.963V139.729H125.874V134.967L132.239 131.266V139.729H136.572Z" fill="white"/>
<path d="M113.272 156.085L119.591 157.146C117.936 161.885 114.46 164.255 109.164 164.255C104.981 164.255 101.897 162.893 99.9108 160.17C98.3309 158.003 97.541 155.25 97.541 151.91C97.541 148.298 98.4513 145.334 100.272 143.017C102.273 140.475 105.026 139.203 108.532 139.203C112.595 139.203 115.596 140.633 117.537 143.491C119.207 145.944 120.005 149.299 119.93 153.557H104.041C104.086 155.242 104.53 156.626 105.372 157.71C106.32 158.913 107.607 159.515 109.232 159.515C111.263 159.515 112.61 158.372 113.272 156.085ZM113.633 149.675C113.588 148.095 113.196 146.801 112.459 145.793C111.617 144.635 110.435 144.055 108.916 144.055C107.381 144.055 106.185 144.627 105.327 145.771C104.53 146.794 104.139 148.095 104.154 149.675H113.633Z" fill="white"/>
<path d="M72.9814 163.7V130.613H79.3234V148.172L86.7486 139.731H94.5575L86.3649 148.488L95.1443 163.7H88.3059L82.2799 152.934L79.3234 156.026V163.7H72.9814Z" fill="white"/>
<path d="M67.9164 146.831L61.6648 147.96C61.2435 145.447 59.7991 144.191 57.3315 144.191C53.8709 144.191 52.1406 146.561 52.1406 151.3C52.1406 156.491 53.901 159.087 57.4218 159.087C59.9044 159.087 61.4316 157.567 62.0033 154.528L68.2324 155.588C66.9234 161.366 63.2221 164.255 57.1284 164.255C53.4421 164.255 50.5758 163.074 48.5296 160.711C46.5886 158.485 45.6182 155.498 45.6182 151.752C45.6182 147.96 46.5962 144.951 48.5521 142.724C50.6135 140.377 53.5098 139.203 57.2412 139.203C62.8685 139.203 66.4269 141.746 67.9164 146.831Z" fill="white"/>
<path d="M33.6963 136.481V130.613H40.0382V136.481H33.6963ZM33.6963 163.7V139.731H40.0382V163.7H33.6963Z" fill="white"/>
<path d="M14.1886 163.7V136.21H4.37109V130.613H30.6641V136.21H20.8691V163.7H14.1886Z" fill="white"/>
</svg>
